PathFileType  4	(X/Y/Z) C:\Users\antoi\Documents\MyRepositories\mobilecap\ResultsAnalysis
DataRate	CameraRate	NumFrames	NumMarkers	Units	OrigDataRate	OrigDataStartFrame	OrigNumFrames
100.0	100.0	6	51	mm	100.0	36	141
Frame#	Time	r_knee			r_shank_antsup			r_ankle			r_calc			r_5meta			r_toe			L_knee			L_shank_antsup			L_ankle			L_calc			L_5meta			L_toe			r_sh2			r_sh3			r_sh4			L_sh2			L_sh3			r_thigh1			r_thigh2			r_thigh3			r_thigh4			r_thigh5			L_thigh1			L_thigh2			L_thigh3			L_thigh4			r.ASIS			r.PSIS			L.ASIS			L.PSIS			C7			R_Shoulder			L_Shoulder			R_Sternum			L_Sternum			R_humerus			R_elbow_med			R_elbow_lat			R_forearm			R_wrist_radius			R_wrist_ulna			L_humerus			L_elbow_med			L_elbow_lat			L_forearm			L_wrist_radius			L_wrist_ulna			R_HJC			L_HJC			R_HJC_reg			L_HJC_reg			
		X1	Y1	Z1	X2	Y2	Z2	X3	Y3	Z3	X4	Y4	Z4	X5	Y5	Z5	X6	Y6	Z6	X7	Y7	Z7	X8	Y8	Z8	X9	Y9	Z9	X10	Y10	Z10	X11	Y11	Z11	X12	Y12	Z12	X13	Y13	Z13	X14	Y14	Z14	X15	Y15	Z15	X16	Y16	Z16	X17	Y17	Z17	X18	Y18	Z18	X19	Y19	Z19	X20	Y20	Z20	X21	Y21	Z21	X22	Y22	Z22	X23	Y23	Z23	X24	Y24	Z24	X25	Y25	Z25	X26	Y26	Z26	X27	Y27	Z27	X28	Y28	Z28	X29	Y29	Z29	X30	Y30	Z30	X31	Y31	Z31	X32	Y32	Z32	X33	Y33	Z33	X34	Y34	Z34	X35	Y35	Z35	X36	Y36	Z36	X37	Y37	Z37	X38	Y38	Z38	X39	Y39	Z39	X40	Y40	Z40	X41	Y41	Z41	X42	Y42	Z42	X43	Y43	Z43	X44	Y44	Z44	X45	Y45	Z45	X46	Y46	Z46	X47	Y47	Z47	X48	Y48	Z48	X49	Y49	Z49	X50	Y50	Z50	X51	Y51	Z51	

36	0.35000000	215.16332	496.30091	-94.60118	247.43508	398.59038	-110.99762	148.83325	91.38672	-138.31927	86.13584	59.07960	-185.45642	268.79317	44.53481	-100.14311	300.50711	72.02238	-157.84512	367.13998	524.81312	-361.37245	379.64483	429.27062	-347.24669	171.29042	163.43156	-342.51091	88.61737	155.08999	-291.24733	238.63117	61.90688	-377.19137	295.14616	71.60445	-324.67725	232.92698	287.00536	-121.43752	186.57513	401.34664	-65.80553	165.13476	288.34563	-71.16431	313.86915	478.06564	-386.52921	252.42341	373.31001	-393.56855	256.05076	776.46410	-56.90098	268.72947	667.88240	-78.60006	218.26113	633.79552	-46.47183	150.25948	758.54017	-35.35275	163.40286	647.61728	-59.78452	336.91144	777.91265	-377.40744	404.25061	657.16387	-353.12879	248.11906	722.36691	-413.99351	309.69694	607.94125	-381.68947	275.10409	969.28767	-89.98969	67.57579	999.76607	-184.31604	280.50134	967.39293	-343.49386	76.06789	996.20181	-279.53595	116.39056	1456.46680	-198.31975	179.54230	1408.04772	-32.33223	208.85982	1438.93073	-349.25560	239.65625	1382.10392	-171.74379	243.44645	1387.02852	-217.16554	222.96258	1275.54434	7.63725	139.02117	1078.68740	-37.21215	151.36923	1086.50926	28.17470	205.13856	1019.85759	48.46908	253.93104	856.42746	20.27249	216.08054	856.19879	55.09186	241.82496	1303.54991	-417.40935	165.35243	1103.72980	-388.08008	190.04404	1118.01459	-463.21221	244.01746	1064.35841	-473.14719	302.02119	895.85029	-456.48520	271.28271	898.68340	-497.38702	190.69587	881.36986	-120.12880	201.29307	879.65587	-309.38654	197.19143	895.00404	-129.78548	212.04718	888.76820	-296.36235	
37	0.36000000	218.53722	496.03326	-93.97159	249.82154	398.07874	-110.43803	148.97523	91.53274	-138.49691	86.25039	59.18130	-185.49763	268.82016	44.49389	-100.12514	300.78236	71.93618	-157.83630	382.24009	527.29834	-359.97147	399.63973	432.77708	-345.93765	208.05576	154.36650	-341.90478	126.49424	141.05142	-290.09289	281.05145	56.89515	-377.08636	337.68840	69.91328	-325.05838	234.45151	286.61576	-121.10285	188.94731	401.18799	-65.27213	166.65058	288.33269	-70.82661	331.11525	477.19039	-385.63611	276.59045	368.89658	-392.88767	264.14589	775.77203	-55.97341	274.96426	666.94268	-77.89326	223.97307	633.63667	-45.88232	157.68104	759.27010	-34.42033	169.29003	648.18107	-59.06627	348.67405	779.90869	-376.69390	417.25266	659.95713	-351.82532	260.64390	723.33832	-413.27001	323.35168	609.71556	-380.47535	285.31302	969.08624	-88.75199	78.01581	1000.04139	-183.80191	291.15980	968.16443	-342.28488	86.61428	996.35199	-278.82026	128.71835	1457.03859	-199.33217	192.36525	1410.22367	-33.17751	220.37138	1437.77237	-350.42281	251.78502	1382.57056	-172.56151	255.34146	1387.00248	-218.02714	235.52252	1277.94583	7.88825	151.23131	1080.79848	-35.47984	163.97272	1088.90679	29.85558	217.98008	1022.51500	50.30566	267.80472	859.38193	22.53970	229.93437	858.84262	57.24853	252.65155	1301.95270	-417.85093	176.87666	1102.36799	-386.46554	199.93244	1116.23042	-462.13028	253.97763	1062.71149	-472.82935	313.41711	894.68108	-456.39729	281.75017	897.01548	-496.55236	200.94266	881.30777	-119.48165	212.03506	880.18101	-308.71517	207.29590	895.60961	-128.58068	222.36953	889.14071	-295.15132	
38	0.37000000	222.19735	495.69814	-93.41947	252.39800	397.51114	-110.00877	149.15977	91.68258	-138.69851	86.32925	59.28708	-185.55060	268.83900	44.45320	-100.10795	301.10829	71.86672	-157.83057	396.53585	529.04066	-358.71468	418.84560	435.91939	-344.78276	245.26973	145.91706	-341.29405	165.11113	127.80084	-288.81343	323.48269	52.74490	-377.10727	380.03195	68.84832	-325.57160	236.10965	286.19837	-120.89612	191.59860	400.99591	-64.77314	168.39751	288.30406	-70.48959	347.62504	475.69902	-384.73272	300.48381	364.22149	-392.13541	272.46024	774.98591	-55.10523	281.44908	665.95917	-77.36269	230.00019	633.38811	-45.36158	165.14235	759.86944	-33.20182	175.45518	648.59652	-58.28530	360.18960	781.25555	-375.82370	429.70777	661.89667	-350.57111	272.83560	723.95359	-412.55897	336.40236	610.95044	-379.41227	295.50091	968.68196	-87.46899	88.47019	1000.00590	-183.27769	301.90529	968.67507	-341.04553	97.17274	996.18981	-278.04371	141.06379	1457.34641	-200.48556	205.25105	1412.06840	-34.11582	232.00860	1436.17378	-351.66815	263.92287	1382.68914	-173.45538	267.22688	1386.61544	-218.94717	248.08096	1280.00965	8.06651	163.44330	1082.55354	-33.76268	176.58296	1090.97156	31.49493	230.93584	1024.87218	51.99265	281.73916	862.01816	24.59271	243.96122	861.22443	59.30274	263.60010	1299.87661	-418.25655	188.45503	1100.56505	-384.97220	209.89523	1114.02828	-461.10571	264.03617	1060.64321	-472.51525	324.88614	893.08577	-456.33872	292.36262	894.93711	-495.73714	211.23690	881.00012	-118.77754	222.85521	880.42983	-307.98196	217.46065	895.94920	-127.32715	232.75844	889.23993	-293.90484	
39	0.38000000	226.11144	495.28927	-92.91196	255.13593	396.88429	-109.64020	149.36217	91.83726	-138.90919	86.37668	59.39153	-185.61695	268.84981	44.41543	-100.08788	301.43358	71.79865	-157.82191	410.05973	530.03303	-357.63305	437.25162	438.71970	-343.82797	282.80038	138.28830	-340.69565	204.25237	115.55896	-287.52234	365.86425	49.60815	-377.14215	422.04009	68.59329	-326.03400	237.86703	285.75338	-120.75694	194.46244	400.77250	-64.28312	170.30911	288.26940	-70.14263	363.45711	473.65158	-383.84496	324.04131	359.40490	-391.31958	280.97966	774.08333	-54.29615	288.18824	664.91823	-76.96774	236.33924	633.03602	-44.87501	172.67878	760.34510	-31.68792	181.88723	648.86225	-57.42796	371.50903	781.95112	-374.77520	441.68028	662.97239	-349.37186	284.73635	724.20182	-411.86909	348.88534	611.61596	-378.54954	305.68132	968.08382	-86.12806	98.95926	999.65488	-182.73142	312.74614	968.90559	-339.77726	107.76350	995.72505	-277.21352	153.42545	1457.38471	-201.78642	218.19473	1413.57762	-35.15223	243.77542	1434.14065	-352.99458	276.07625	1382.46543	-174.42453	279.07882	1385.86209	-219.92496	260.65290	1281.72605	8.14238	175.68252	1083.93723	-32.04949	189.20463	1092.70038	33.09675	244.01919	1026.92705	53.52271	295.70109	864.32350	26.40883	258.12558	863.34708	61.24970	274.66858	1297.32756	-418.63054	200.04686	1098.32804	-383.62575	219.95859	1111.41090	-460.15617	274.19731	1058.15579	-472.22744	336.42400	891.06950	-456.30263	303.11685	892.45328	-494.95076	221.58979	880.45294	-118.00403	233.76308	880.39278	-307.17456	227.70803	895.99021	-126.02319	243.23427	889.05959	-292.63175	
40	0.39000000	230.23270	494.80042	-92.40800	258.00944	396.19600	-109.25007	149.55865	91.99739	-139.11690	86.40854	59.49104	-185.69706	268.85311	44.38176	-100.06207	301.71551	71.71775	-157.80584	422.85971	530.29546	-356.74669	454.85275	441.20539	-343.10329	320.48557	131.64117	-340.12351	243.68998	104.49317	-286.31038	408.11854	47.60665	-377.05678	463.57161	69.34495	-326.26550	239.69350	285.27372	-120.61146	197.46238	400.51745	-63.77444	172.31132	288.23331	-69.77863	378.69151	471.11636	-383.02297	347.20651	354.56058	-390.47520	289.66057	773.04485	-53.53565	295.14328	663.80275	-76.64295	242.96408	632.56857	-44.37975	180.38214	760.68925	-29.93121	188.56366	648.98293	-56.48502	382.68935	782.01090	-373.53505	453.23033	663.20178	-348.21557	296.40211	724.07714	-411.20891	360.84713	611.69612	-377.92024	315.86752	967.30409	-84.72615	109.50576	998.98521	-182.15623	323.69206	968.83337	-338.48741	118.41092	994.96285	-276.34575	165.81447	1457.14014	-203.23966	231.18353	1414.75335	-36.29640	255.66435	1431.68613	-354.40810	288.25397	1381.91264	-175.46873	290.88592	1384.74394	-220.96345	273.25113	1283.09159	8.08318	187.99028	1084.93959	-30.35059	201.84322	1094.09617	34.65355	257.21719	1028.67790	54.90074	309.66939	866.29626	27.98009	272.38226	865.21418	63.08723	285.85640	1294.32176	-418.98654	211.62171	1095.66806	-382.45014	230.15378	1108.38809	-459.29915	284.47500	1055.25790	-471.97826	348.01828	888.63915	-456.28039	313.99844	889.56883	-494.20003	232.01452	879.67469	-117.15283	244.77040	880.05695	-306.28490	238.05927	895.70809	-124.67242	253.81823	888.59080	-291.34326	
41	0.40000000	234.51719	494.22709	-91.86729	261.00190	395.44269	-108.76604	149.73374	92.16382	-139.31327	86.44211	59.58538	-185.79013	268.85012	44.35113	-100.02787	301.93199	71.61509	-157.78022	435.01019	529.87697	-356.05527	471.65767	443.40067	-342.60970	358.13438	126.07450	-339.59213	283.19449	94.69637	-285.22886	450.13018	46.82849	-376.72602	504.47318	71.29703	-326.12983	241.57050	284.74606	-120.39266	200.53694	400.22765	-63.22273	174.34530	288.19389	-69.39343	393.42347	468.17147	-382.32141	369.93672	349.79240	-389.65588	298.45705	771.86039	-52.79896	302.24546	662.59481	-76.30883	249.83324	631.97901	-43.83304	188.36854	760.88338	-28.02810	195.46059	648.97296	-55.45472	393.78662	781.46758	-372.10022	464.41507	662.63308	-347.07253	307.89997	723.58148	-410.58577	372.35379	611.19763	-377.52941	326.07366	966.35627	-83.27316	120.13115	997.99955	-181.55360	334.75290	968.43589	-337.18681	129.13755	993.90221	-275.46224	178.25046	1456.59746	-204.84909	244.19704	1415.60322	-37.56095	267.65963	1428.83016	-355.91555	300.46416	1381.04711	-176.58921	302.66085	1383.27251	-222.07042	285.88449	1284.10973	7.85893	200.39980	1085.56204	-28.69144	214.50786	1095.17167	36.14929	270.50184	1030.12486	56.13773	323.63203	867.94255	29.31644	286.69059	866.82697	64.81585	297.16442	1290.88583	-419.34807	223.16950	1092.60089	-381.46015	240.51225	1104.97683	-458.55020	294.89097	1051.96353	-471.76973	359.64889	885.80176	-456.26241	324.98598	886.29122	-493.48865	242.52448	878.67611	-116.22147	255.88825	879.40814	-305.31089	248.53118	895.09834	-123.28109	264.52581	887.82380	-290.04598	
